<mxfile host="app.diagrams.net" agent="Mozilla/5.0 (Windows NT 10.0; Win64; x64) AppleWebKit/537.36 (KHTML, like Gecko) Chrome/127.0.0.0 Safari/537.36 Edg/127.0.0.0" version="24.7.6" pages="3">
  <diagram name="Página-1" id="iV5z_z82FDn5M0ZQj8UE">
    <mxGraphModel grid="1" page="1" gridSize="10" guides="1" tooltips="1" connect="1" arrows="1" fold="1" pageScale="1" pageWidth="827" pageHeight="1169" math="0" shadow="0">
      <root>
        <mxCell id="0" />
        <mxCell id="1" parent="0" />
        <mxCell id="Vb5_SzPyOZUKm0L_zmqD-5" value="" style="rounded=0;whiteSpace=wrap;html=1;fillColor=#dae8fc;strokeColor=#6c8ebf;labelBackgroundColor=none;" vertex="1" parent="1">
          <mxGeometry x="99.76408912188725" y="537.8846153846154" width="630.2359108781127" height="263.8461538461538" as="geometry" />
        </mxCell>
        <mxCell id="Vb5_SzPyOZUKm0L_zmqD-2" value="" style="rounded=0;whiteSpace=wrap;html=1;fillColor=#e1d5e7;strokeColor=#9673a6;" vertex="1" parent="1">
          <mxGeometry x="340" y="585" width="357.7981651376147" height="197.8846153846154" as="geometry" />
        </mxCell>
        <mxCell id="M8ZHSbNGO5HvNC0YvUvR-1" value="Empleado" style="swimlane;childLayout=stackLayout;horizontal=1;startSize=50;horizontalStack=0;rounded=1;fontSize=14;fontStyle=0;strokeWidth=2;resizeParent=0;resizeLast=1;shadow=0;dashed=0;align=center;arcSize=4;whiteSpace=wrap;html=1;" vertex="1" parent="1">
          <mxGeometry x="350.22280471821756" y="622.6923076923077" width="132.8964613368283" height="150.76923076923075" as="geometry" />
        </mxCell>
        <mxCell id="M8ZHSbNGO5HvNC0YvUvR-2" value="+Nombre&lt;div&gt;+Fecha de Nacimiento&lt;br&gt;&lt;div&gt;+Estado Civil&lt;/div&gt;&lt;/div&gt;&lt;div&gt;+Correo Electrónico&lt;/div&gt;&lt;div&gt;+Teléfono&lt;/div&gt;&lt;div&gt;+Salario&lt;/div&gt;&lt;div&gt;+Id Tipo de Empleado&lt;/div&gt;" style="align=left;strokeColor=none;fillColor=none;spacingLeft=4;fontSize=12;verticalAlign=top;resizable=0;rotatable=0;part=1;html=1;" vertex="1" parent="M8ZHSbNGO5HvNC0YvUvR-1">
          <mxGeometry y="50" width="132.8964613368283" height="100.76923076923075" as="geometry" />
        </mxCell>
        <mxCell id="M8ZHSbNGO5HvNC0YvUvR-4" value="Tipo de Empleado" style="swimlane;childLayout=stackLayout;horizontal=1;startSize=50;horizontalStack=0;rounded=1;fontSize=14;fontStyle=0;strokeWidth=2;resizeParent=0;resizeLast=1;shadow=0;dashed=0;align=center;arcSize=4;whiteSpace=wrap;html=1;" vertex="1" parent="1">
          <mxGeometry x="558.7680209698558" y="622.6923076923077" width="132.8964613368283" height="103.65384615384616" as="geometry" />
        </mxCell>
        <mxCell id="M8ZHSbNGO5HvNC0YvUvR-5" value="&lt;div&gt;+Nombre&lt;/div&gt;+Descripción&lt;div&gt;+Tiene Beneficios&lt;/div&gt;" style="align=left;strokeColor=none;fillColor=none;spacingLeft=4;fontSize=12;verticalAlign=top;resizable=0;rotatable=0;part=1;html=1;" vertex="1" parent="M8ZHSbNGO5HvNC0YvUvR-4">
          <mxGeometry y="50" width="132.8964613368283" height="53.65384615384616" as="geometry" />
        </mxCell>
        <mxCell id="M8ZHSbNGO5HvNC0YvUvR-6" style="edgeStyle=orthogonalEdgeStyle;rounded=0;orthogonalLoop=1;jettySize=auto;html=1;entryX=0;entryY=0.25;entryDx=0;entryDy=0;exitX=1.008;exitY=0.833;exitDx=0;exitDy=0;exitPerimeter=0;" edge="1" parent="1" source="M8ZHSbNGO5HvNC0YvUvR-2" target="M8ZHSbNGO5HvNC0YvUvR-4">
          <mxGeometry relative="1" as="geometry" />
        </mxCell>
        <mxCell id="Vb5_SzPyOZUKm0L_zmqD-7" value="Empleados" style="rounded=0;whiteSpace=wrap;html=1;fillColor=none;strokeColor=none;fontStyle=1;fontSize=17;" vertex="1" parent="1">
          <mxGeometry x="340" y="591.5961538461538" width="357.7981651376147" height="23.557692307692307" as="geometry" />
        </mxCell>
        <mxCell id="Vb5_SzPyOZUKm0L_zmqD-3" value="Banco" style="swimlane;childLayout=stackLayout;horizontal=1;startSize=50;horizontalStack=0;rounded=1;fontSize=14;fontStyle=0;strokeWidth=2;resizeParent=0;resizeLast=1;shadow=0;dashed=0;align=center;arcSize=4;whiteSpace=wrap;html=1;" vertex="1" parent="1">
          <mxGeometry x="145.7667103538663" y="608.5576923076923" width="102.22804718217563" height="89.51923076923077" as="geometry" />
        </mxCell>
        <mxCell id="Vb5_SzPyOZUKm0L_zmqD-4" value="&lt;div&gt;+Nombre&lt;/div&gt;+Rfc" style="align=left;strokeColor=none;fillColor=none;spacingLeft=4;fontSize=12;verticalAlign=top;resizable=0;rotatable=0;part=1;html=1;" vertex="1" parent="Vb5_SzPyOZUKm0L_zmqD-3">
          <mxGeometry y="50" width="102.22804718217563" height="39.519230769230774" as="geometry" />
        </mxCell>
        <mxCell id="Vb5_SzPyOZUKm0L_zmqD-8" value="Contabilidad" style="rounded=0;whiteSpace=wrap;html=1;fillColor=none;strokeColor=none;fontStyle=1;fontSize=17;" vertex="1" parent="1">
          <mxGeometry x="99.76408912188725" y="542.5961538461538" width="630.2359108781127" height="28.26923076923077" as="geometry" />
        </mxCell>
      </root>
    </mxGraphModel>
  </diagram>
  <diagram id="8UELB8MidGqQlNil_cON" name="Página-2">
    <mxGraphModel dx="1226" dy="593" grid="1" gridSize="10" guides="1" tooltips="1" connect="1" arrows="1" fold="1" page="1" pageScale="1" pageWidth="200" pageHeight="100" background="none" math="0" shadow="0">
      <root>
        <mxCell id="0" />
        <mxCell id="1" parent="0" />
        <mxCell id="qAXw6dYvGS64qPr-gLZB-1" value="Empleado" style="swimlane;childLayout=stackLayout;horizontal=1;startSize=50;horizontalStack=0;rounded=1;fontSize=14;fontStyle=0;strokeWidth=2;resizeParent=0;resizeLast=1;shadow=0;dashed=0;align=center;arcSize=4;whiteSpace=wrap;html=1;labelBackgroundColor=none;fillColor=#A8DADC;strokeColor=#457B9D;fontColor=#1D3557;" vertex="1" parent="1">
          <mxGeometry x="240" y="250" width="130" height="170" as="geometry" />
        </mxCell>
        <mxCell id="qAXw6dYvGS64qPr-gLZB-2" value="+Nombre&lt;div&gt;+Fecha de Nacimiento&lt;br&gt;&lt;div&gt;+Estado Civil&lt;/div&gt;&lt;/div&gt;&lt;div&gt;+Correo Electrónico&lt;/div&gt;&lt;div&gt;+Teléfono&lt;/div&gt;&lt;div&gt;+Salario&lt;/div&gt;&lt;div&gt;+Tipo de Empleado&lt;/div&gt;" style="align=left;strokeColor=none;fillColor=none;spacingLeft=4;fontSize=12;verticalAlign=top;resizable=0;rotatable=0;part=1;html=1;labelBackgroundColor=none;fontColor=#1D3557;rounded=1;" vertex="1" parent="qAXw6dYvGS64qPr-gLZB-1">
          <mxGeometry y="50" width="130" height="120" as="geometry" />
        </mxCell>
        <mxCell id="qAXw6dYvGS64qPr-gLZB-3" value="Tipo de Empleado" style="swimlane;childLayout=stackLayout;horizontal=1;startSize=50;horizontalStack=0;rounded=1;fontSize=14;fontStyle=0;strokeWidth=2;resizeParent=0;resizeLast=1;shadow=0;dashed=0;align=center;arcSize=4;whiteSpace=wrap;html=1;labelBackgroundColor=none;fillColor=#A8DADC;strokeColor=#457B9D;fontColor=#1D3557;" vertex="1" parent="1">
          <mxGeometry x="444" y="250" width="130" height="110" as="geometry" />
        </mxCell>
        <mxCell id="qAXw6dYvGS64qPr-gLZB-4" value="&lt;div&gt;+Nombre&lt;/div&gt;+Descripción&lt;div&gt;+Tiene Beneficios&lt;/div&gt;" style="align=left;strokeColor=none;fillColor=none;spacingLeft=4;fontSize=12;verticalAlign=top;resizable=0;rotatable=0;part=1;html=1;labelBackgroundColor=none;fontColor=#1D3557;rounded=1;" vertex="1" parent="qAXw6dYvGS64qPr-gLZB-3">
          <mxGeometry y="50" width="130" height="60" as="geometry" />
        </mxCell>
        <mxCell id="qAXw6dYvGS64qPr-gLZB-5" style="edgeStyle=orthogonalEdgeStyle;rounded=1;orthogonalLoop=1;jettySize=auto;html=1;entryX=0;entryY=0.25;entryDx=0;entryDy=0;exitX=1.008;exitY=0.833;exitDx=0;exitDy=0;exitPerimeter=0;labelBackgroundColor=none;strokeColor=#457B9D;fontColor=default;" edge="1" parent="1" source="qAXw6dYvGS64qPr-gLZB-2" target="qAXw6dYvGS64qPr-gLZB-3">
          <mxGeometry relative="1" as="geometry" />
        </mxCell>
      </root>
    </mxGraphModel>
  </diagram>
  <diagram id="gevfHehvNHPKUHrvSY6-" name="Página-3">
    <mxGraphModel grid="1" page="1" gridSize="10" guides="1" tooltips="1" connect="1" arrows="1" fold="1" pageScale="1" pageWidth="300" pageHeight="1000" math="0" shadow="0">
      <root>
        <mxCell id="0" />
        <mxCell id="1" parent="0" />
        <mxCell id="2Xy96ozuiR3ApkOEizh_-1" value="" style="rounded=0;whiteSpace=wrap;html=1;fillColor=#e1d5e7;strokeColor=#9673a6;" vertex="1" parent="1">
          <mxGeometry x="365" y="70" width="350" height="280" as="geometry" />
        </mxCell>
        <mxCell id="2Xy96ozuiR3ApkOEizh_-2" value="" style="rounded=0;whiteSpace=wrap;html=1;fillColor=#dae8fc;strokeColor=#6c8ebf;labelBackgroundColor=none;" vertex="1" parent="1">
          <mxGeometry x="185" y="270" width="320" height="140" as="geometry" />
        </mxCell>
        <mxCell id="2Xy96ozuiR3ApkOEizh_-3" value="Empleado" style="swimlane;childLayout=stackLayout;horizontal=1;startSize=50;horizontalStack=0;rounded=1;fontSize=14;fontStyle=0;strokeWidth=2;resizeParent=0;resizeLast=1;shadow=0;dashed=0;align=center;arcSize=4;whiteSpace=wrap;html=1;" vertex="1" parent="1">
          <mxGeometry x="375" y="110" width="130" height="220" as="geometry" />
        </mxCell>
        <mxCell id="2Xy96ozuiR3ApkOEizh_-4" value="+Nombre&lt;div&gt;+Fecha de Nacimiento&lt;br&gt;&lt;div&gt;+Estado Civil&lt;/div&gt;&lt;/div&gt;&lt;div&gt;+Correo Electrónico&lt;/div&gt;&lt;div&gt;+Teléfono&lt;/div&gt;&lt;div&gt;+Salario&lt;/div&gt;&lt;div&gt;+Id Tipo de Empleado&lt;/div&gt;&lt;div&gt;&lt;br&gt;&lt;/div&gt;&lt;div&gt;+Id Banco&lt;/div&gt;&lt;div&gt;+No Cuenta&lt;/div&gt;" style="align=left;strokeColor=none;fillColor=none;spacingLeft=4;fontSize=12;verticalAlign=top;resizable=0;rotatable=0;part=1;html=1;" vertex="1" parent="2Xy96ozuiR3ApkOEizh_-3">
          <mxGeometry y="50" width="130" height="170" as="geometry" />
        </mxCell>
        <mxCell id="2Xy96ozuiR3ApkOEizh_-5" value="Tipo de Empleado" style="swimlane;childLayout=stackLayout;horizontal=1;startSize=50;horizontalStack=0;rounded=1;fontSize=14;fontStyle=0;strokeWidth=2;resizeParent=0;resizeLast=1;shadow=0;dashed=0;align=center;arcSize=4;whiteSpace=wrap;html=1;" vertex="1" parent="1">
          <mxGeometry x="579" y="110" width="130" height="110" as="geometry" />
        </mxCell>
        <mxCell id="2Xy96ozuiR3ApkOEizh_-6" value="&lt;div&gt;+Nombre&lt;/div&gt;+Descripción&lt;div&gt;+Tiene Beneficios&lt;/div&gt;" style="align=left;strokeColor=none;fillColor=none;spacingLeft=4;fontSize=12;verticalAlign=top;resizable=0;rotatable=0;part=1;html=1;" vertex="1" parent="2Xy96ozuiR3ApkOEizh_-5">
          <mxGeometry y="50" width="130" height="60" as="geometry" />
        </mxCell>
        <mxCell id="2Xy96ozuiR3ApkOEizh_-7" style="edgeStyle=orthogonalEdgeStyle;rounded=0;orthogonalLoop=1;jettySize=auto;html=1;entryX=0;entryY=0.25;entryDx=0;entryDy=0;exitX=1.008;exitY=0.833;exitDx=0;exitDy=0;exitPerimeter=0;" edge="1" parent="1" source="2Xy96ozuiR3ApkOEizh_-4" target="2Xy96ozuiR3ApkOEizh_-5">
          <mxGeometry relative="1" as="geometry">
            <Array as="points">
              <mxPoint x="506" y="260" />
              <mxPoint x="542" y="260" />
              <mxPoint x="542" y="138" />
            </Array>
          </mxGeometry>
        </mxCell>
        <mxCell id="2Xy96ozuiR3ApkOEizh_-8" value="Banco" style="swimlane;childLayout=stackLayout;horizontal=1;startSize=50;horizontalStack=0;rounded=1;fontSize=14;fontStyle=0;strokeWidth=2;resizeParent=0;resizeLast=1;shadow=0;dashed=0;align=center;arcSize=4;whiteSpace=wrap;html=1;" vertex="1" parent="1">
          <mxGeometry x="200" y="300" width="100" height="95" as="geometry" />
        </mxCell>
        <mxCell id="2Xy96ozuiR3ApkOEizh_-9" value="&lt;div&gt;+Nombre&lt;/div&gt;+Rfc" style="align=left;strokeColor=none;fillColor=none;spacingLeft=4;fontSize=12;verticalAlign=top;resizable=0;rotatable=0;part=1;html=1;" vertex="1" parent="2Xy96ozuiR3ApkOEizh_-8">
          <mxGeometry y="50" width="100" height="45" as="geometry" />
        </mxCell>
        <mxCell id="2Xy96ozuiR3ApkOEizh_-10" value="Empleados" style="rounded=0;whiteSpace=wrap;html=1;fillColor=none;strokeColor=none;fontStyle=1;fontSize=17;" vertex="1" parent="1">
          <mxGeometry x="365" y="77" width="350" height="25" as="geometry" />
        </mxCell>
        <mxCell id="2Xy96ozuiR3ApkOEizh_-11" value="Contabilidad" style="rounded=0;whiteSpace=wrap;html=1;fillColor=none;strokeColor=none;fontStyle=1;fontSize=17;" vertex="1" parent="1">
          <mxGeometry x="185" y="271" width="187" height="25" as="geometry" />
        </mxCell>
        <mxCell id="2Xy96ozuiR3ApkOEizh_-12" style="edgeStyle=orthogonalEdgeStyle;rounded=0;orthogonalLoop=1;jettySize=auto;html=1;entryX=1;entryY=0.25;entryDx=0;entryDy=0;" edge="1" parent="1" source="2Xy96ozuiR3ApkOEizh_-4" target="2Xy96ozuiR3ApkOEizh_-8">
          <mxGeometry relative="1" as="geometry">
            <Array as="points">
              <mxPoint x="338" y="290" />
              <mxPoint x="338" y="324" />
            </Array>
          </mxGeometry>
        </mxCell>
        <mxCell id="_i6f6tIzwov6imXnczYi-1" value="" style="rounded=0;whiteSpace=wrap;html=1;fillColor=#e1d5e7;strokeColor=#9673a6;" vertex="1" parent="1">
          <mxGeometry x="490" y="563" width="350" height="230" as="geometry" />
        </mxCell>
        <mxCell id="_i6f6tIzwov6imXnczYi-2" value="" style="rounded=0;whiteSpace=wrap;html=1;fillColor=#dae8fc;strokeColor=#6c8ebf;labelBackgroundColor=none;" vertex="1" parent="1">
          <mxGeometry x="118.5" y="562" width="311.5" height="160" as="geometry" />
        </mxCell>
        <mxCell id="_i6f6tIzwov6imXnczYi-3" value="Empleado" style="swimlane;childLayout=stackLayout;horizontal=1;startSize=50;horizontalStack=0;rounded=1;fontSize=14;fontStyle=0;strokeWidth=2;resizeParent=0;resizeLast=1;shadow=0;dashed=0;align=center;arcSize=4;whiteSpace=wrap;html=1;" vertex="1" parent="1">
          <mxGeometry x="500" y="610" width="130" height="160" as="geometry" />
        </mxCell>
        <mxCell id="_i6f6tIzwov6imXnczYi-4" value="+Nombre&lt;div&gt;+Fecha de Nacimiento&lt;br&gt;&lt;div&gt;+Estado Civil&lt;/div&gt;&lt;/div&gt;&lt;div&gt;+Correo Electrónico&lt;/div&gt;&lt;div&gt;+Teléfono&lt;/div&gt;&lt;div&gt;+Salario&lt;/div&gt;&lt;div&gt;+Id Tipo de Empleado&lt;/div&gt;" style="align=left;strokeColor=none;fillColor=none;spacingLeft=4;fontSize=12;verticalAlign=top;resizable=0;rotatable=0;part=1;html=1;" vertex="1" parent="_i6f6tIzwov6imXnczYi-3">
          <mxGeometry y="50" width="130" height="110" as="geometry" />
        </mxCell>
        <mxCell id="_i6f6tIzwov6imXnczYi-5" value="Tipo de Empleado" style="swimlane;childLayout=stackLayout;horizontal=1;startSize=50;horizontalStack=0;rounded=1;fontSize=14;fontStyle=0;strokeWidth=2;resizeParent=0;resizeLast=1;shadow=0;dashed=0;align=center;arcSize=4;whiteSpace=wrap;html=1;" vertex="1" parent="1">
          <mxGeometry x="704" y="610" width="130" height="110" as="geometry" />
        </mxCell>
        <mxCell id="_i6f6tIzwov6imXnczYi-6" value="&lt;div&gt;+Nombre&lt;/div&gt;+Descripción&lt;div&gt;+Tiene Beneficios&lt;/div&gt;" style="align=left;strokeColor=none;fillColor=none;spacingLeft=4;fontSize=12;verticalAlign=top;resizable=0;rotatable=0;part=1;html=1;" vertex="1" parent="_i6f6tIzwov6imXnczYi-5">
          <mxGeometry y="50" width="130" height="60" as="geometry" />
        </mxCell>
        <mxCell id="_i6f6tIzwov6imXnczYi-8" value="Banco" style="swimlane;childLayout=stackLayout;horizontal=1;startSize=50;horizontalStack=0;rounded=1;fontSize=14;fontStyle=0;strokeWidth=2;resizeParent=0;resizeLast=1;shadow=0;dashed=0;align=center;arcSize=4;whiteSpace=wrap;html=1;" vertex="1" parent="1">
          <mxGeometry x="133.5" y="600" width="100" height="95" as="geometry" />
        </mxCell>
        <mxCell id="_i6f6tIzwov6imXnczYi-9" value="&lt;div&gt;+Nombre&lt;/div&gt;+Rfc" style="align=left;strokeColor=none;fillColor=none;spacingLeft=4;fontSize=12;verticalAlign=top;resizable=0;rotatable=0;part=1;html=1;" vertex="1" parent="_i6f6tIzwov6imXnczYi-8">
          <mxGeometry y="50" width="100" height="45" as="geometry" />
        </mxCell>
        <mxCell id="_i6f6tIzwov6imXnczYi-10" value="Empleados" style="rounded=0;whiteSpace=wrap;html=1;fillColor=none;strokeColor=none;fontStyle=1;fontSize=17;" vertex="1" parent="1">
          <mxGeometry x="490" y="574" width="350" height="25" as="geometry" />
        </mxCell>
        <mxCell id="_i6f6tIzwov6imXnczYi-11" value="Contabilidad" style="rounded=0;whiteSpace=wrap;html=1;fillColor=none;strokeColor=none;fontStyle=1;fontSize=17;" vertex="1" parent="1">
          <mxGeometry x="118.5" y="569" width="311.5" height="25" as="geometry" />
        </mxCell>
        <mxCell id="_i6f6tIzwov6imXnczYi-17" style="edgeStyle=orthogonalEdgeStyle;rounded=0;orthogonalLoop=1;jettySize=auto;html=1;entryX=1;entryY=0.25;entryDx=0;entryDy=0;" edge="1" parent="1" source="_i6f6tIzwov6imXnczYi-13" target="_i6f6tIzwov6imXnczYi-8">
          <mxGeometry relative="1" as="geometry">
            <Array as="points">
              <mxPoint x="262" y="660" />
              <mxPoint x="262" y="624" />
            </Array>
          </mxGeometry>
        </mxCell>
        <mxCell id="_i6f6tIzwov6imXnczYi-13" value="Empleado" style="swimlane;childLayout=stackLayout;horizontal=1;startSize=50;horizontalStack=0;rounded=1;fontSize=14;fontStyle=0;strokeWidth=2;resizeParent=0;resizeLast=1;shadow=0;dashed=0;align=center;arcSize=4;whiteSpace=wrap;html=1;" vertex="1" parent="1">
          <mxGeometry x="290" y="596" width="130" height="94" as="geometry" />
        </mxCell>
        <mxCell id="_i6f6tIzwov6imXnczYi-14" value="&lt;div&gt;&lt;span style=&quot;background-color: initial;&quot;&gt;+Id Banco&lt;/span&gt;&lt;br&gt;&lt;/div&gt;&lt;div&gt;+No Cuenta&lt;/div&gt;" style="align=left;strokeColor=none;fillColor=none;spacingLeft=4;fontSize=12;verticalAlign=top;resizable=0;rotatable=0;part=1;html=1;" vertex="1" parent="_i6f6tIzwov6imXnczYi-13">
          <mxGeometry y="50" width="130" height="44" as="geometry" />
        </mxCell>
        <mxCell id="_i6f6tIzwov6imXnczYi-15" style="edgeStyle=orthogonalEdgeStyle;rounded=0;orthogonalLoop=1;jettySize=auto;html=1;entryX=0;entryY=0.25;entryDx=0;entryDy=0;" edge="1" parent="1" source="_i6f6tIzwov6imXnczYi-4" target="_i6f6tIzwov6imXnczYi-5">
          <mxGeometry relative="1" as="geometry">
            <Array as="points">
              <mxPoint x="680" y="760" />
              <mxPoint x="680" y="638" />
            </Array>
          </mxGeometry>
        </mxCell>
      </root>
    </mxGraphModel>
  </diagram>
</mxfile>
